HIERARCHY
ROOT Hips
{
	OFFSET 0.000000 8.830580 0.000000
	CHANNELS 6 Xposition Yposition Zposition Zrotation Yrotation Xrotation 
	JOINT Spine
	{
		OFFSET 0.000000 0.010000 0.000000
		CHANNELS 3 Zrotation Yrotation Xrotation
		JOINT Spine1
		{
			OFFSET 0.000000 2.459130 0.000000
			CHANNELS 3 Zrotation Yrotation Xrotation
			JOINT Neck
			{
				OFFSET 0.000000 2.484630 0.000000
				CHANNELS 3 Zrotation Yrotation Xrotation
				JOINT Head_virtual
				{
					OFFSET 0.000000 0.000000 0.000000
					CHANNELS 3 Zrotation Yrotation Xrotation
					JOINT Head
					{
						OFFSET 0.000000 0.927525 0.000000
						CHANNELS 3 Zrotation Yrotation Xrotation
						End Site
						{
							OFFSET 0.000000 0.000000 0.000000
						}
					}
				}
				JOINT LeftUpArm_virtual
				{
					OFFSET 0.000000 0.000000 0.000000
					CHANNELS 3 Zrotation Yrotation Xrotation
					JOINT LeftUpArm
					{
						OFFSET 1.248820 0.000000 0.000000
						CHANNELS 3 Zrotation Yrotation Xrotation
						JOINT LeftForeArm
						{
							OFFSET 2.597580 0.000000 0.000000
							CHANNELS 3 Zrotation Yrotation Xrotation
							JOINT LeftHand
							{
								OFFSET 2.455420 0.000000 0.000000
								CHANNELS 3 Zrotation Yrotation Xrotation
								End Site
								{
									OFFSET 0.000000 0.000000 0.000000
								}
							}
						}
					}
				}
				JOINT RightUpArm_virtual
				{
					OFFSET -0.000000 -0.000000 -0.000000
					CHANNELS 3 Zrotation Yrotation Xrotation
					JOINT RightUpArm
					{
						OFFSET -1.248820 -0.000000 -0.000000
						CHANNELS 3 Zrotation Yrotation Xrotation
						JOINT RightForeArm
						{
							OFFSET -2.597580 -0.000000 -0.000000
							CHANNELS 3 Zrotation Yrotation Xrotation
							JOINT RightHand
							{
								OFFSET -2.455420 -0.000000 -0.000000
								CHANNELS 3 Zrotation Yrotation Xrotation
								End Site
								{
									OFFSET 0.000000 0.000000 0.000000
								}
							}
						}
					}
				}
			}
		}
	}
	JOINT LeftUpLeg
	{
		OFFSET 1.271939 0.000000 0.000000
		CHANNELS 3 Zrotation Yrotation Xrotation
		JOINT LeftLowLeg
		{
			OFFSET 0.000000 -4.342910 0.000000
			CHANNELS 3 Zrotation Yrotation Xrotation
			JOINT LeftFoot
			{
				OFFSET 0.000000 -4.487670 0.000000
				CHANNELS 3 Zrotation Yrotation Xrotation
				JOINT LeftToeBase
				{
					OFFSET 0.000000 0.000000 1.515070
					CHANNELS 3 Zrotation Yrotation Xrotation
					End Site
					{
						OFFSET 0.000000 0.000000 0.000000
					}
				}
			}
		}
	}
	JOINT RightUpLeg
	{
		OFFSET -1.271939 0.000000 0.000000
		CHANNELS 3 Zrotation Yrotation Xrotation
		JOINT RightLowLeg
		{
			OFFSET 0.000000 -4.342910 0.000000
			CHANNELS 3 Zrotation Yrotation Xrotation
			JOINT RightFoot
			{
				OFFSET 0.000000 -4.487670 0.000000
				CHANNELS 3 Zrotation Yrotation Xrotation
				JOINT RightToeBase
				{
					OFFSET 0.000000 0.000000 1.515070
					CHANNELS 3 Zrotation Yrotation Xrotation
					End Site
					{
						OFFSET 0.000000 0.000000 0.000000
					}
				}
			}
		}
	}
}
MOTION
Frames: 14
Frame Time: 0.041667
-17.333501 9.295093 34.710461 -173.139038 -1.469282 176.487151 10.676156 -2.421632 -23.482529 -7.053686 6.088549 36.507954 0.000000 0.000000 0.000000 2.010639 3.084618 -16.016555 4.960501 5.308015 -70.052210 -28.576099 -3.746260 -8.378280 -37.952301 -4.512140 41.531799 0.000000 -27.252300 0.000000 9.367620 4.256370 3.751090 32.722401 1.261630 -0.678292 44.832298 11.122800 30.731501 0.000000 25.100901 0.000000 -8.374660 -2.032110 -7.779990 9.248864 15.716671 11.319166 0.000000 0.000000 0.626705 -6.286896 5.314697 9.162216 0.000000 0.000000 -11.529820 9.181084 7.878305 7.576051 0.000000 0.000000 7.643920 15.401072 -25.069559 8.212898 0.000000 0.000000 -11.958430 
-17.332953 9.294893 34.711586 -173.139541 -1.493057 176.490402 10.680286 -2.423974 -23.468857 -7.055119 6.078086 36.497648 0.000000 0.000000 0.000000 2.035498 3.074707 -16.028851 4.951959 5.308260 -70.083263 -28.571501 -3.770820 -8.375550 -37.944801 -4.493040 41.522301 0.000000 -27.224899 0.000000 9.377640 4.307360 3.738370 32.735401 1.247870 -0.682561 44.825500 11.124200 30.727800 0.000000 25.101000 0.000000 -8.357320 -2.062530 -7.811110 9.242359 15.675255 11.300507 0.000000 0.000000 0.629519 -6.293215 5.327320 9.154068 0.000000 0.000000 -11.518890 9.177433 7.835053 7.583667 0.000000 0.000000 7.608280 15.377790 -25.054756 8.225457 0.000000 0.000000 -11.958520 
-17.332521 9.294694 34.712450 -173.147788 -1.506677 176.492615 10.681982 -2.431678 -23.456085 -7.060882 6.067133 36.501626 0.000000 0.000000 0.000000 2.059211 3.059084 -16.069853 4.935022 5.304197 -70.098385 -28.573500 -3.766850 -8.390800 -37.934799 -4.489480 41.536598 0.000000 -27.225599 0.000000 9.385030 4.365340 3.714140 32.746799 1.238610 -0.687667 44.814800 11.134700 30.749701 0.000000 25.097099 0.000000 -8.401150 -2.048420 -7.814320 9.233475 15.664507 11.289711 0.000000 0.000000 0.628307 -6.309327 5.319906 9.159190 0.000000 0.000000 -11.526640 9.175838 7.847965 7.580299 0.000000 0.000000 7.604310 15.382324 -25.079115 8.208964 0.000000 0.000000 -11.959710 
-17.332521 9.294694 34.712450 -173.147788 -1.506677 176.492615 10.681982 -2.431678 -23.456085 -7.060882 6.067133 36.501626 0.000000 0.000000 0.000000 2.059211 3.059084 -16.069853 4.935022 5.304197 -70.098385 -28.573500 -3.766850 -8.390800 -37.934799 -4.489480 41.536598 0.000000 -27.225599 0.000000 9.385030 4.365340 3.714140 32.746799 1.238610 -0.687667 44.814800 11.134700 30.749701 0.000000 25.097099 0.000000 -8.401150 -2.048420 -7.814320 9.233475 15.664507 11.289711 0.000000 0.000000 0.628307 -6.309327 5.319906 9.159190 0.000000 0.000000 -11.526640 9.175838 7.847965 7.580299 0.000000 0.000000 7.604310 15.382324 -25.079115 8.208964 0.000000 0.000000 -11.959710 
-17.331732 9.294809 34.713094 -173.145244 -1.493511 176.500162 10.696358 -2.420397 -23.455777 -7.060147 6.064755 36.518689 0.000000 0.000000 0.000000 2.107662 3.024781 -16.105489 4.909110 5.285641 -70.112089 -28.572901 -3.784390 -8.395270 -37.910599 -4.465350 41.543701 0.000000 -27.279600 0.000000 9.382860 4.445970 3.650600 32.753799 1.238530 -0.678688 44.794800 11.146400 30.747101 0.000000 25.114901 0.000000 -8.388200 -2.100850 -7.860500 9.241419 15.693340 11.285606 0.000000 0.000000 0.620774 -6.294747 5.312197 9.170957 0.000000 0.000000 -11.540090 9.198703 7.945875 7.593326 0.000000 0.000000 7.561660 15.399635 -25.158892 8.199961 0.000000 0.000000 -11.950080 
-17.330838 9.294830 34.713468 -173.144536 -1.432336 176.515395 10.709868 -2.391209 -23.452543 -7.041455 6.083001 36.541007 0.000000 0.000000 0.000000 2.112825 3.019064 -16.155789 4.915235 5.285179 -70.128756 -28.546200 -3.801960 -8.440540 -37.973202 -4.444970 41.509602 0.000000 -27.238400 0.000000 9.363330 4.408180 3.630680 32.733299 1.225350 -0.686482 44.807499 11.168800 30.746401 0.000000 25.104799 0.000000 -8.365370 -2.123300 -7.746600 9.252362 15.758234 11.297265 0.000000 0.000000 0.600531 -6.300572 5.306865 9.176250 0.000000 0.000000 -11.521730 9.208333 8.020960 7.579176 0.000000 0.000000 7.558280 15.395942 -25.174157 8.198825 0.000000 0.000000 -11.948930 
-17.329623 9.294955 34.714218 -173.150169 -1.392404 176.523738 10.712290 -2.395683 -23.440110 -7.027277 6.083249 36.544659 0.000000 0.000000 0.000000 2.088969 3.018424 -16.144818 4.947070 5.279127 -70.175085 -28.559000 -3.799430 -8.435700 -37.977501 -4.461060 41.528000 0.000000 -27.232100 0.000000 9.358660 4.299440 3.697590 32.731300 1.256380 -0.684293 44.783001 11.144800 30.711201 0.000000 25.128901 0.000000 -8.372000 -2.080280 -7.680930 9.259330 15.815787 11.298851 0.000000 0.000000 0.596786 -6.300639 5.289620 9.191861 0.000000 0.000000 -11.537860 9.202137 8.017811 7.569228 0.000000 0.000000 7.551830 15.370296 -25.139959 8.217085 0.000000 0.000000 -11.941730 
-17.329623 9.294955 34.714218 -173.150169 -1.392404 176.523738 10.712290 -2.395683 -23.440110 -7.027277 6.083249 36.544659 0.000000 0.000000 0.000000 2.088969 3.018424 -16.144818 4.947070 5.279127 -70.175085 -28.559000 -3.799430 -8.435700 -37.977501 -4.461060 41.528000 0.000000 -27.232100 0.000000 9.358660 4.299440 3.697590 32.731300 1.256380 -0.684293 44.783001 11.144800 30.711201 0.000000 25.128901 0.000000 -8.372000 -2.080280 -7.680930 9.259330 15.815787 11.298851 0.000000 0.000000 0.596786 -6.300639 5.289620 9.191861 0.000000 0.000000 -11.537860 9.202137 8.017811 7.569228 0.000000 0.000000 7.551830 15.370296 -25.139959 8.217085 0.000000 0.000000 -11.941730 
-17.327917 9.294884 34.715825 -173.150774 -1.399527 176.528222 10.698865 -2.436696 -23.407324 -7.010107 6.070963 36.538949 0.000000 0.000000 0.000000 2.104510 3.006077 -16.165116 4.966106 5.268445 -70.191839 -28.576200 -3.797890 -8.458790 -37.985001 -4.483730 41.579201 0.000000 -27.219200 0.000000 9.388840 4.258320 3.799150 32.746498 1.240420 -0.711100 44.756001 11.161000 30.740999 0.000000 25.135000 0.000000 -8.369890 -2.052060 -7.627370 9.249134 15.753996 11.267267 0.000000 0.000000 0.619132 -6.308824 5.349858 9.175562 0.000000 0.000000 -11.531890 9.195629 7.934157 7.561592 0.000000 0.000000 7.532590 15.326800 -25.083419 8.251323 0.000000 0.000000 -11.943600 
-17.325938 9.294821 34.717304 -173.158358 -1.394397 176.532441 10.672461 -2.484716 -23.383890 -6.982876 6.074824 36.545102 0.000000 0.000000 0.000000 2.069733 3.008253 -16.192042 5.051828 5.245997 -70.161137 -28.588200 -3.825430 -8.489930 -38.000500 -4.486980 41.605000 0.000000 -27.208300 0.000000 9.409770 4.347880 3.784030 32.738400 1.237970 -0.721317 44.754398 11.179300 30.710400 0.000000 25.135401 0.000000 -8.346500 -2.012240 -7.681090 9.242886 15.733633 11.244586 0.000000 0.000000 0.635993 -6.312685 5.379682 9.170711 0.000000 0.000000 -11.522260 9.193786 7.918167 7.549804 0.000000 0.000000 7.528890 15.317420 -25.072362 8.251845 0.000000 0.000000 -11.955410 
-17.325938 9.294821 34.717304 -173.158358 -1.394397 176.532441 10.672461 -2.484716 -23.383890 -6.982876 6.074824 36.545102 0.000000 0.000000 0.000000 2.069733 3.008253 -16.192042 5.051828 5.245997 -70.161137 -28.588200 -3.825430 -8.489930 -38.000500 -4.486980 41.605000 0.000000 -27.208300 0.000000 9.409770 4.347880 3.784030 32.738400 1.237970 -0.721317 44.754398 11.179300 30.710400 0.000000 25.135401 0.000000 -8.346500 -2.012240 -7.681090 9.242886 15.733633 11.244586 0.000000 0.000000 0.635993 -6.312685 5.379682 9.170711 0.000000 0.000000 -11.522260 9.193786 7.918167 7.549804 0.000000 0.000000 7.528890 15.317420 -25.072362 8.251845 0.000000 0.000000 -11.955410 
-17.324309 9.294867 34.717550 -173.150453 -1.381396 176.536965 10.661477 -2.540196 -23.384242 -6.953713 6.069631 36.565776 0.000000 0.000000 0.000000 2.027100 3.021412 -16.199480 5.058155 5.251619 -70.156039 -28.598000 -3.809900 -8.501530 -38.026798 -4.516920 41.633099 0.000000 -27.198799 0.000000 9.433820 4.376190 3.820700 32.719601 1.275840 -0.730143 44.757702 11.159500 30.711800 0.000000 25.138599 0.000000 -8.396770 -1.988080 -7.626780 9.260248 15.742502 11.242378 0.000000 0.000000 0.636163 -6.321724 5.379765 9.170481 0.000000 0.000000 -11.531480 9.204997 7.902445 7.539609 0.000000 0.000000 7.532770 15.286717 -25.050818 8.278364 0.000000 0.000000 -11.948670 
-17.322791 9.294910 34.717684 -173.154236 -1.364320 176.541226 10.631235 -2.624273 -23.389988 -6.888086 6.086153 36.602588 0.000000 0.000000 0.000000 1.994294 3.005978 -16.247919 5.054334 5.225696 -70.087531 -28.615000 -3.823510 -8.573400 -38.054600 -4.477780 41.680302 0.000000 -27.223801 0.000000 9.447830 4.360120 3.865600 32.695999 1.263680 -0.732193 44.750801 11.208800 30.799999 0.000000 25.107300 0.000000 -8.502720 -1.916550 -7.767710 9.269211 15.779436 11.245283 0.000000 0.000000 0.630027 -6.326638 5.365262 9.183480 0.000000 0.000000 -11.550760 9.196415 7.855795 7.518623 0.000000 0.000000 7.562200 15.294135 -24.985304 8.275774 0.000000 0.000000 -11.938670 
-17.321115 9.295059 34.717792 -173.151001 -1.344045 176.544760 10.597419 -2.717477 -23.387863 -6.805352 6.103174 36.616249 0.000000 0.000000 0.000000 1.921152 3.016552 -16.238817 5.084669 5.217600 -70.081965 -28.681101 -3.817290 -8.541490 -38.025200 -4.516540 41.691601 0.000000 -27.249300 0.000000 9.425920 4.254580 3.890790 32.626400 1.330760 -0.777179 44.788300 11.129700 30.701799 0.000000 25.146900 0.000000 -8.415330 -2.058460 -7.644780 9.283441 15.800469 11.247506 0.000000 0.000000 0.629009 -6.323711 5.364317 9.185866 0.000000 0.000000 -11.529220 9.202803 7.842594 7.499766 0.000000 0.000000 7.585270 15.279982 -24.958832 8.294480 0.000000 0.000000 -11.964090 
